<?xml version="1.0" encoding="UTF-8" standalone="no"?>
<!DOCTYPE svg PUBLIC "-//W3C//DTD SVG 1.1//EN"
 "http://www.w3.org/Graphics/SVG/1.1/DTD/svg11.dtd">
<!-- Generated by graphviz version 2.46.1 (20210213.1702)
 -->
<!-- Title: dependencies Pages: 1 -->
<svg width="1098pt" height="355pt"
 viewBox="0.00 0.00 1098.00 355.00" xmlns="http://www.w3.org/2000/svg" xmlns:xlink="http://www.w3.org/1999/xlink">
<g id="graph0" class="graph" transform="scale(1 1) rotate(0) translate(4 351)">
<title>dependencies</title>
<polygon fill="white" stroke="transparent" points="-4,4 -4,-351 1094,-351 1094,4 -4,4"/>
<text text-anchor="start" x="524.01" y="-42.4" font-family="sans-serif" font-weight="bold" font-size="14.00">Legend</text>
<polygon fill="#ffffb3" stroke="transparent" points="311,-10 311,-30 331,-30 331,-10 311,-10"/>
<text text-anchor="start" x="334.63" y="-15.4" font-family="sans-serif" font-size="14.00"> &#160;Declarations</text>
<polygon fill="#8dd3c7" stroke="transparent" points="424,-10 424,-30 444,-30 444,-10 424,-10"/>
<text text-anchor="start" x="447.73" y="-15.4" font-family="sans-serif" font-size="14.00"> &#160;Module</text>
<polygon fill="#80b1d3" stroke="transparent" points="510,-10 510,-30 530,-30 530,-10 510,-10"/>
<text text-anchor="start" x="533.78" y="-15.4" font-family="sans-serif" font-size="14.00"> &#160;Bootstrap</text>
<polygon fill="#fdb462" stroke="transparent" points="607,-10 607,-30 627,-30 627,-10 607,-10"/>
<text text-anchor="start" x="630.67" y="-15.4" font-family="sans-serif" font-size="14.00"> &#160;Providers</text>
<polygon fill="#fb8072" stroke="transparent" points="703,-10 703,-30 723,-30 723,-10 703,-10"/>
<text text-anchor="start" x="726.73" y="-15.4" font-family="sans-serif" font-size="14.00"> &#160;Exports</text>
<g id="clust1" class="cluster">
<title>cluster_AppModule</title>
<polygon fill="none" stroke="black" stroke-dasharray="1,5" points="8,-70 8,-339 620,-339 620,-70 8,-70"/>
</g>
<g id="clust2" class="cluster">
<title>cluster_AppModule_declarations</title>
<polygon fill="none" stroke="black" points="48,-143 48,-195 335,-195 335,-143 48,-143"/>
</g>
<g id="clust5" class="cluster">
<title>cluster_AppModule_imports</title>
<polygon fill="none" stroke="black" points="343,-78 343,-195 612,-195 612,-78 343,-78"/>
</g>
<g id="clust7" class="cluster">
<title>cluster_AppModule_bootstrap</title>
<polygon fill="none" stroke="black" points="68,-279 68,-331 192,-331 192,-279 68,-279"/>
</g>
<g id="clust15" class="cluster">
<title>cluster_LayoutModule</title>
<polygon fill="none" stroke="black" stroke-dasharray="1,5" points="628,-203 628,-271 932,-271 932,-203 628,-203"/>
</g>
<g id="clust16" class="cluster">
<title>cluster_LayoutModule_declarations</title>
<polygon fill="none" stroke="black" points="786,-211 786,-263 924,-263 924,-211 786,-211"/>
</g>
<g id="clust19" class="cluster">
<title>cluster_LayoutModule_exports</title>
<polygon fill="none" stroke="black" points="636,-211 636,-263 778,-263 778,-211 636,-211"/>
</g>
<g id="clust28" class="cluster">
<title>cluster_SharedModule</title>
<polygon fill="none" stroke="black" stroke-dasharray="1,5" points="940,-143 940,-271 1082,-271 1082,-143 940,-143"/>
</g>
<g id="clust31" class="cluster">
<title>cluster_SharedModule_exports</title>
<polygon fill="none" stroke="black" points="948,-211 948,-263 1074,-263 1074,-211 948,-211"/>
</g>
<!-- AppComponent -->
<g id="node1" class="node">
<title>AppComponent</title>
<polygon fill="#ffffb3" stroke="black" points="326.94,-187 221.06,-187 221.06,-151 326.94,-151 326.94,-187"/>
<text text-anchor="middle" x="274" y="-164.8" font-family="Times,serif" font-size="14.00">AppComponent</text>
</g>
<!-- AppModule -->
<g id="node3" class="node">
<title>AppModule</title>
<polygon fill="#8dd3c7" stroke="black" points="171.66,-255 168.66,-259 147.66,-259 144.66,-255 88.34,-255 88.34,-219 171.66,-219 171.66,-255"/>
<text text-anchor="middle" x="130" y="-232.8" font-family="Times,serif" font-size="14.00">AppModule</text>
</g>
<!-- AppComponent&#45;&gt;AppModule -->
<g id="edge1" class="edge">
<title>AppComponent&#45;&gt;AppModule</title>
<path fill="none" stroke="black" d="M274,-187.27C274,-205.56 274,-231 274,-231 274,-231 182.04,-231 182.04,-231"/>
<polygon fill="black" stroke="black" points="182.04,-227.5 172.04,-231 182.04,-234.5 182.04,-227.5"/>
</g>
<!-- RecipePageComponent -->
<g id="node2" class="node">
<title>RecipePageComponent</title>
<polygon fill="#ffffb3" stroke="black" points="203.92,-187 56.08,-187 56.08,-151 203.92,-151 203.92,-187"/>
<text text-anchor="middle" x="130" y="-164.8" font-family="Times,serif" font-size="14.00">RecipePageComponent</text>
</g>
<!-- RecipePageComponent&#45;&gt;AppModule -->
<g id="edge2" class="edge">
<title>RecipePageComponent&#45;&gt;AppModule</title>
<path fill="none" stroke="black" d="M130,-187.22C130,-187.22 130,-208.73 130,-208.73"/>
<polygon fill="black" stroke="black" points="126.5,-208.73 130,-218.73 133.5,-208.73 126.5,-208.73"/>
</g>
<!-- AppComponent  -->
<g id="node7" class="node">
<title>AppComponent </title>
<polygon fill="#80b1d3" stroke="black" points="184.44,-323 75.56,-323 75.56,-287 184.44,-287 184.44,-323"/>
<text text-anchor="middle" x="130" y="-300.8" font-family="Times,serif" font-size="14.00">AppComponent </text>
</g>
<!-- AppModule&#45;&gt;AppComponent  -->
<g id="edge6" class="edge">
<title>AppModule&#45;&gt;AppComponent </title>
<path fill="none" stroke="black" stroke-dasharray="1,5" d="M130,-255.22C130,-255.22 130,-276.73 130,-276.73"/>
<polygon fill="black" stroke="black" points="126.5,-276.73 130,-286.73 133.5,-276.73 126.5,-276.73"/>
</g>
<!-- AppRoutingModule -->
<g id="node4" class="node">
<title>AppRoutingModule</title>
<polygon fill="#8dd3c7" stroke="black" points="479.27,-122 476.27,-126 455.27,-126 452.27,-122 350.73,-122 350.73,-86 479.27,-86 479.27,-122"/>
<text text-anchor="middle" x="415" y="-99.8" font-family="Times,serif" font-size="14.00">AppRoutingModule</text>
</g>
<!-- AppRoutingModule&#45;&gt;AppModule -->
<g id="edge3" class="edge">
<title>AppRoutingModule&#45;&gt;AppModule</title>
<path fill="none" stroke="black" d="M415,-122.21C415,-158.64 415,-237 415,-237 415,-237 181.75,-237 181.75,-237"/>
<polygon fill="black" stroke="black" points="181.75,-233.5 171.75,-237 181.75,-240.5 181.75,-233.5"/>
</g>
<!-- LayoutModule -->
<g id="node5" class="node">
<title>LayoutModule</title>
<polygon fill="#8dd3c7" stroke="black" points="601.71,-187 598.71,-191 577.71,-191 574.71,-187 502.29,-187 502.29,-151 601.71,-151 601.71,-187"/>
<text text-anchor="middle" x="552" y="-164.8" font-family="Times,serif" font-size="14.00">LayoutModule</text>
</g>
<!-- LayoutModule&#45;&gt;AppModule -->
<g id="edge4" class="edge">
<title>LayoutModule&#45;&gt;AppModule</title>
<path fill="none" stroke="black" d="M535.47,-187.15C535.47,-210.76 535.47,-249 535.47,-249 535.47,-249 181.86,-249 181.86,-249"/>
<polygon fill="black" stroke="black" points="181.86,-245.5 171.86,-249 181.86,-252.5 181.86,-245.5"/>
</g>
<!-- HeaderComponent  -->
<g id="node9" class="node">
<title>HeaderComponent </title>
<polygon fill="#fb8072" stroke="black" points="769.74,-255 644.26,-255 644.26,-219 769.74,-219 769.74,-255"/>
<text text-anchor="middle" x="707" y="-232.8" font-family="Times,serif" font-size="14.00">HeaderComponent </text>
</g>
<!-- LayoutModule&#45;&gt;HeaderComponent  -->
<g id="edge9" class="edge">
<title>LayoutModule&#45;&gt;HeaderComponent </title>
<path fill="none" stroke="black" stroke-dasharray="5,2" d="M568.53,-187.03C568.53,-203.4 568.53,-225 568.53,-225 568.53,-225 634.25,-225 634.25,-225"/>
<polygon fill="black" stroke="black" points="634.25,-228.5 644.25,-225 634.25,-221.5 634.25,-228.5"/>
</g>
<!-- MaterialModule -->
<g id="node6" class="node">
<title>MaterialModule</title>
<polygon fill="#8dd3c7" stroke="black" points="604.47,-122 601.47,-126 580.47,-126 577.47,-122 497.53,-122 497.53,-86 604.47,-86 604.47,-122"/>
<text text-anchor="middle" x="551" y="-99.8" font-family="Times,serif" font-size="14.00">MaterialModule</text>
</g>
<!-- MaterialModule&#45;&gt;AppModule -->
<g id="edge5" class="edge">
<title>MaterialModule&#45;&gt;AppModule</title>
<path fill="none" stroke="black" d="M497.41,-104C492,-104 488.45,-104 488.45,-104 488.45,-104 488.45,-243 488.45,-243 488.45,-243 181.82,-243 181.82,-243"/>
<polygon fill="black" stroke="black" points="181.82,-239.5 171.82,-243 181.82,-246.5 181.82,-239.5"/>
</g>
<!-- MaterialModule&#45;&gt;LayoutModule -->
<g id="edge8" class="edge">
<title>MaterialModule&#45;&gt;LayoutModule</title>
<path fill="none" stroke="black" d="M552,-122.11C552,-122.11 552,-140.99 552,-140.99"/>
<polygon fill="black" stroke="black" points="548.5,-140.99 552,-150.99 555.5,-140.99 548.5,-140.99"/>
</g>
<!-- SharedModule -->
<g id="node10" class="node">
<title>SharedModule</title>
<polygon fill="#8dd3c7" stroke="black" points="1053.42,-187 1050.42,-191 1029.42,-191 1026.42,-187 954.58,-187 954.58,-151 1053.42,-151 1053.42,-187"/>
<text text-anchor="middle" x="1004" y="-164.8" font-family="Times,serif" font-size="14.00">SharedModule</text>
</g>
<!-- MaterialModule&#45;&gt;SharedModule -->
<g id="edge10" class="edge">
<title>MaterialModule&#45;&gt;SharedModule</title>
<path fill="none" stroke="black" d="M604.74,-104C724.74,-104 1004,-104 1004,-104 1004,-104 1004,-140.89 1004,-140.89"/>
<polygon fill="black" stroke="black" points="1000.5,-140.89 1004,-150.89 1007.5,-140.89 1000.5,-140.89"/>
</g>
<!-- HeaderComponent -->
<g id="node8" class="node">
<title>HeaderComponent</title>
<polygon fill="#ffffb3" stroke="black" points="915.74,-255 794.26,-255 794.26,-219 915.74,-219 915.74,-255"/>
<text text-anchor="middle" x="855" y="-232.8" font-family="Times,serif" font-size="14.00">HeaderComponent</text>
</g>
<!-- HeaderComponent&#45;&gt;LayoutModule -->
<g id="edge7" class="edge">
<title>HeaderComponent&#45;&gt;LayoutModule</title>
<path fill="none" stroke="black" d="M855,-218.78C855,-198.63 855,-169 855,-169 855,-169 611.69,-169 611.69,-169"/>
<polygon fill="black" stroke="black" points="611.7,-165.5 601.69,-169 611.69,-172.5 611.7,-165.5"/>
</g>
<!-- MaterialModule  -->
<g id="node11" class="node">
<title>MaterialModule </title>
<polygon fill="#fb8072" stroke="black" points="1066.47,-255 955.53,-255 955.53,-219 1066.47,-219 1066.47,-255"/>
<text text-anchor="middle" x="1011" y="-232.8" font-family="Times,serif" font-size="14.00">MaterialModule </text>
</g>
<!-- SharedModule&#45;&gt;MaterialModule  -->
<g id="edge11" class="edge">
<title>SharedModule&#45;&gt;MaterialModule </title>
<path fill="none" stroke="black" stroke-dasharray="5,2" d="M1004.49,-187.22C1004.49,-187.22 1004.49,-208.73 1004.49,-208.73"/>
<polygon fill="black" stroke="black" points="1000.99,-208.73 1004.49,-218.73 1007.99,-208.73 1000.99,-208.73"/>
</g>
</g>
</svg>
